<svg width="78" height="20" viewBox="0 0 78 20" fill="none" xmlns="http://www.w3.org/2000/svg">
<path d="M2.376 19V11.512H6.192V19H2.376ZM1.272 19C1.128 19 1.056 18.92 1.056 18.76V18.304C1.056 18.144 1.128 18.04 1.272 17.992L1.776 17.848C2.064 17.736 2.232 17.648 2.28 17.584C2.344 17.504 2.376 17.328 2.376 17.056V14.68H6.192V17.008C6.192 17.296 6.216 17.48 6.264 17.56C6.328 17.64 6.488 17.72 6.744 17.8L7.704 18.016C7.848 18.064 7.92 18.168 7.92 18.328V18.76C7.92 18.92 7.84 19 7.68 19H1.272ZM2.376 11.512V7.912L2.832 8.968L1.008 8.56C0.848 8.528 0.768 8.432 0.768 8.272V7.744C0.768 7.568 0.848 7.48 1.008 7.48L5.472 6.808C5.728 6.76 5.912 6.768 6.024 6.832C6.136 6.896 6.192 7.048 6.192 7.288V11.512H2.376ZM4.32 5.224C3.664 5.224 3.136 5.056 2.736 4.72C2.352 4.384 2.16 3.928 2.16 3.352C2.16 2.792 2.352 2.344 2.736 2.008C3.136 1.672 3.664 1.504 4.32 1.504C4.96 1.504 5.472 1.672 5.856 2.008C6.256 2.344 6.456 2.792 6.456 3.352C6.456 3.928 6.256 4.384 5.856 4.72C5.472 5.056 4.96 5.224 4.32 5.224ZM10.0958 8.848C9.95175 8.896 9.84775 8.848 9.78375 8.704L9.59175 8.176C9.52775 8.048 9.56775 7.936 9.71175 7.84C10.1758 7.568 10.5678 7.208 10.8878 6.76C11.2238 6.312 11.3918 5.832 11.3918 5.32C11.3918 4.712 11.2558 4.184 10.9838 3.736C10.7118 3.272 10.3918 2.816 10.0238 2.368C9.92775 2.256 9.91975 2.128 9.99975 1.984C10.1758 1.728 10.4238 1.464 10.7438 1.192C11.0638 0.919999 11.4158 0.695999 11.7998 0.519999C12.1998 0.327999 12.5678 0.231998 12.9038 0.231998C13.1438 0.231998 13.3678 0.391999 13.5758 0.711999C13.7838 1.032 13.9518 1.44 14.0798 1.936C14.2238 2.416 14.2958 2.92 14.2958 3.448C14.2958 4.28 14.1438 5.008 13.8398 5.632C13.5518 6.24 13.1838 6.768 12.7358 7.216C12.3038 7.648 11.8478 8 11.3678 8.272C10.8878 8.528 10.4638 8.72 10.0958 8.848ZM33.0238 19C32.8638 19 32.7838 18.92 32.7838 18.76V18.304C32.7838 18.144 32.8558 18.04 32.9998 17.992L33.6478 17.848C33.9198 17.736 34.0798 17.648 34.1278 17.584C34.1918 17.504 34.2238 17.328 34.2238 17.056V11.536C34.2238 10.944 34.0718 10.488 33.7678 10.168C33.4798 9.832 33.0558 9.664 32.4958 9.664C31.6478 9.664 30.7758 10.056 29.8798 10.84L29.4958 10.216C29.8318 9.528 30.2638 8.928 30.7918 8.416C31.3358 7.904 31.9358 7.504 32.5918 7.216C33.2638 6.928 33.9518 6.784 34.6558 6.784C35.8398 6.784 36.6958 7.12 37.2238 7.792C37.7678 8.464 38.0398 9.536 38.0398 11.008V17.008C38.0398 17.296 38.0638 17.48 38.1118 17.56C38.1758 17.64 38.3438 17.72 38.6158 17.8L39.5518 18.016C39.6958 18.064 39.7678 18.168 39.7678 18.328V18.76C39.7678 18.92 39.6878 19 39.5278 19H33.0238ZM17.2798 19C17.1198 19 17.0398 18.92 17.0398 18.76V18.304C17.0398 18.144 17.1198 18.04 17.2798 17.992L17.7838 17.848C18.0718 17.736 18.2398 17.648 18.2878 17.584C18.3518 17.504 18.3838 17.328 18.3838 17.056V11.536H22.1998V17.008C22.1998 17.296 22.2238 17.48 22.2718 17.56C22.3358 17.64 22.4958 17.728 22.7518 17.824L23.4238 17.992C23.5678 18.056 23.6398 18.168 23.6398 18.328V18.76C23.6398 18.92 23.5598 19 23.3998 19H17.2798ZM25.1518 19C24.9918 19 24.9118 18.92 24.9118 18.76V18.304C24.9118 18.144 24.9918 18.04 25.1518 17.992L25.7038 17.848C25.9918 17.736 26.1598 17.648 26.2078 17.584C26.2718 17.504 26.3038 17.328 26.3038 17.056V11.536C26.3038 10.944 26.1518 10.488 25.8478 10.168C25.5438 9.832 25.1118 9.664 24.5518 9.664C23.7198 9.664 22.8398 10.056 21.9118 10.84L21.5758 10.216C22.0718 9.208 22.7838 8.384 23.7118 7.744C24.6558 7.104 25.6558 6.784 26.7118 6.784C27.8958 6.784 28.7598 7.128 29.3038 7.816C29.8478 8.488 30.1198 9.552 30.1198 11.008V17.008C30.1198 17.296 30.1438 17.48 30.1918 17.56C30.2558 17.64 30.4158 17.728 30.6718 17.824L31.2718 17.992C31.4158 18.056 31.4878 18.168 31.4878 18.328V18.76C31.4878 18.92 31.4078 19 31.2478 19H25.1518ZM18.3838 11.536V7.912L18.8398 8.992L17.0158 8.584C16.8558 8.552 16.7758 8.456 16.7758 8.296V7.744C16.7758 7.6 16.8558 7.504 17.0158 7.456L21.2398 6.808C21.5118 6.776 21.6958 6.792 21.7918 6.856C21.9038 6.92 21.9598 7.064 21.9598 7.288V9.952L22.1998 10.336V11.536H18.3838ZM49.5039 19V1.024H53.5599V19H49.5039ZM47.2239 19C47.0639 19 46.9839 18.92 46.9839 18.76V18.232C46.9839 18.088 47.0639 17.992 47.2239 17.944L48.9039 17.488C49.1759 17.392 49.3439 17.296 49.4079 17.2C49.4719 17.104 49.5039 16.936 49.5039 16.696V14.032H53.5599V16.648C53.5599 16.936 53.5999 17.128 53.6799 17.224C53.7599 17.32 53.9039 17.4 54.1119 17.464L55.9119 17.944C56.0559 18.008 56.1279 18.112 56.1279 18.256V18.76C56.1279 18.92 56.0479 19 55.8879 19H47.2239ZM46.9839 1.264C46.9839 1.104 47.0639 1.024 47.2239 1.024H55.8879C56.0479 1.024 56.1279 1.104 56.1279 1.264V1.768C56.1279 1.912 56.0559 2.016 55.9119 2.08L54.1119 2.56C53.9039 2.624 53.7599 2.704 53.6799 2.8C53.5999 2.896 53.5599 3.088 53.5599 3.376V5.992H49.5039V3.328C49.5039 3.088 49.4719 2.92 49.4079 2.824C49.3439 2.712 49.1759 2.616 48.9039 2.536L47.2239 2.08C47.0639 2.032 46.9839 1.936 46.9839 1.792V1.264ZM75.1976 2.56C74.9736 2.624 74.8216 2.704 74.7416 2.8C74.6616 2.896 74.6216 3.088 74.6216 3.376V18.88C74.6216 19.04 74.5416 19.12 74.3816 19.12H73.1336C72.9736 19.12 72.8376 19.056 72.7256 18.928L60.4856 4.12L62.3816 2.224V16.696C62.3816 16.936 62.4136 17.104 62.4776 17.2C62.5576 17.296 62.7256 17.392 62.9816 17.488L64.6376 17.92C64.7816 18 64.8536 18.112 64.8536 18.256V18.76C64.8536 18.92 64.7736 19 64.6136 19H57.6536C57.4936 19 57.4136 18.92 57.4136 18.76V18.232C57.4136 18.088 57.4936 17.992 57.6536 17.944L59.4296 17.464C59.6376 17.4 59.7816 17.32 59.8616 17.224C59.9576 17.128 60.0056 16.936 60.0056 16.648V3.472C60.0056 3.184 59.9496 2.976 59.8376 2.848C59.7256 2.704 59.5576 2.6 59.3336 2.536L57.6296 2.08C57.4856 2.016 57.4136 1.912 57.4136 1.768V1.264C57.4136 1.104 57.4936 1.024 57.6536 1.024H62.6936C62.8536 1.024 62.9816 1.08 63.0776 1.192L73.9976 14.416L72.2216 17.248V3.328C72.2216 3.088 72.1816 2.92 72.1016 2.824C72.0376 2.712 71.8696 2.616 71.5976 2.536L69.9896 2.104C69.8456 2.024 69.7736 1.912 69.7736 1.768V1.264C69.7736 1.104 69.8536 1.024 70.0136 1.024H76.9736C77.1176 1.024 77.1896 1.104 77.1896 1.264V1.792C77.1896 1.936 77.1176 2.032 76.9736 2.08L75.1976 2.56Z" fill="#373737"/>
</svg>
